<?xml version="1.0" encoding="UTF-8" standalone="no"?>
<!DOCTYPE svg PUBLIC "-//W3C//DTD SVG 1.1//EN" "http://www.w3.org/Graphics/SVG/1.1/DTD/svg11.dtd">
<svg width="100%" height="100%" viewBox="0 0 512 512" version="1.1" xmlns="http://www.w3.org/2000/svg" xmlns:xlink="http://www.w3.org/1999/xlink" xml:space="preserve" style="fill-rule:evenodd;clip-rule:evenodd;stroke-linejoin:round;stroke-miterlimit:1.41421;">
    <g transform="matrix(0.976562,0,0,0.976562,6,6)">
        <path d="M482.372,366.576L482.372,145.424C482.372,132.976 475.734,121.466 464.943,115.247L273.429,4.672C262.638,-1.557 249.352,-1.557 238.571,4.672L47.047,115.247C36.266,121.466 29.628,132.976 29.628,145.424L29.628,366.576C29.628,379.024 36.266,390.534 47.047,396.763L238.571,507.328C249.352,513.557 262.638,513.557 273.429,507.328L464.943,396.763C475.734,390.534 482.372,379.024 482.372,366.576ZM183.092,260.859C183.681,257.478 183.976,254.294 183.976,251.307C183.976,243.799 181.863,237.617 177.638,232.763C173.412,227.908 167.545,225.481 160.037,225.481C154.573,225.481 149.915,226.866 146.063,229.638C142.21,232.409 139.37,236.133 137.543,240.811C135.715,245.489 134.801,250.874 134.801,256.967C134.801,260.387 135.046,263.561 135.538,266.49C136.029,269.418 136.874,272.249 138.073,274.981C139.272,277.712 140.795,280.042 142.643,281.968C144.49,283.894 146.869,285.427 149.777,286.567C152.686,287.707 155.988,288.277 159.683,288.277C163.85,288.277 167.948,287.667 171.977,286.449C176.006,285.23 179.475,283.579 182.384,281.496C182.109,280.12 181.618,278.676 180.91,277.162C180.203,275.649 179.357,274.44 178.375,273.536C172.518,276.602 166.936,278.135 161.629,278.135C156.794,278.135 153.315,276.622 151.193,273.595C149.07,270.568 147.871,266.323 147.596,260.859L183.092,260.859ZM243.47,260.859C244.06,257.478 244.355,254.294 244.355,251.307C244.355,243.799 242.242,237.617 238.016,232.763C233.79,227.908 227.924,225.481 220.416,225.481C214.952,225.481 210.294,226.866 206.441,229.638C202.589,232.409 199.749,236.133 197.921,240.811C196.093,245.489 195.179,250.874 195.179,256.967C195.179,260.387 195.425,263.561 195.916,266.49C196.408,269.418 197.253,272.249 198.452,274.981C199.651,277.712 201.174,280.042 203.021,281.968C204.869,283.894 207.247,285.427 210.156,286.567C213.065,287.707 216.367,288.277 220.062,288.277C224.229,288.277 228.327,287.667 232.356,286.449C236.385,285.23 239.854,283.579 242.763,281.496C242.488,280.12 241.996,278.676 241.289,277.162C240.581,275.649 239.736,274.44 238.753,273.536C232.896,276.602 227.314,278.135 222.008,278.135C217.173,278.135 213.694,276.622 211.571,273.595C209.448,270.568 208.25,266.323 207.974,260.859L243.47,260.859ZM392.412,256.849C392.412,246.079 395.281,237.824 401.021,232.085C405.423,227.682 411.241,225.481 418.474,225.481C425.746,225.481 431.583,227.682 435.986,232.085C441.725,237.824 444.594,246.079 444.594,256.849C444.594,267.62 441.725,275.875 435.986,281.614C431.544,286.056 425.707,288.277 418.474,288.277C411.28,288.277 405.462,286.056 401.021,281.614C395.281,275.875 392.412,267.62 392.412,256.849ZM345.536,238.63L350.076,263.748L353.614,280.553C354.125,283.304 355.029,285.112 356.326,285.977C357.623,286.842 359.609,287.274 362.282,287.274C366.33,287.274 369.475,287.117 371.716,286.803L386.339,228.134L385.985,227.485C384.57,226.857 382.467,226.542 379.676,226.542C377.435,226.542 375.666,226.699 374.369,227.014L367.824,256.378C366.606,261.881 365.171,268.878 363.52,277.369C363.166,277.369 362.92,277.31 362.783,277.192C362.645,277.074 362.557,276.818 362.517,276.425L352.612,227.368C351.196,226.974 348.74,226.778 345.241,226.778C341.861,226.778 339.364,226.974 337.753,227.368L327.611,277.369C327.297,277.369 327.09,277.319 326.992,277.221C326.894,277.123 326.786,276.858 326.668,276.425C325.292,268.681 323.955,261.999 322.658,256.378L317.233,231.259C316.88,229.49 316.241,228.203 315.317,227.397C314.393,226.591 313.106,226.188 311.455,226.188C308.979,226.188 306.522,226.758 304.085,227.898L316.644,280.435C317.351,283.147 318.354,284.965 319.651,285.889C320.948,286.813 322.756,287.274 325.076,287.274C328.692,287.274 332.033,287.078 335.099,286.685L339.934,263.63C341.507,256.397 343.158,248.064 344.887,238.63L345.536,238.63ZM67.406,285.977L67.406,204.961L68.172,204.077C69.155,204.077 72.801,204.018 79.11,203.9C85.419,203.782 90.146,203.723 93.29,203.723C102.017,203.723 108.582,205.63 112.984,209.443C117.387,213.256 119.588,218.641 119.588,225.599C119.588,229.372 118.556,232.792 116.493,235.858C114.429,238.924 111.687,241.126 108.267,242.462C112.513,243.72 116.129,246.305 119.116,250.216C122.104,254.127 123.598,258.599 123.598,263.63C123.598,270.706 121.2,276.396 116.404,280.7C111.608,285.004 104.415,287.156 94.824,287.156C91.915,287.156 88.996,287.137 86.067,287.097C83.139,287.058 79.945,287.009 76.486,286.95C73.027,286.891 70.255,286.842 68.172,286.803L67.406,285.977ZM301.313,215.103C303.829,215.103 305.667,214.651 306.826,213.747C307.986,212.843 308.566,211.349 308.566,209.266C308.566,207.851 308.33,206.16 307.858,204.195L252.315,204.195C252,205.925 251.843,207.733 251.843,209.62C251.843,211.546 252,213.374 252.315,215.103L266.702,215.103C267.292,215.103 268.452,215.074 270.181,215.015C271.91,214.956 273.03,214.926 273.542,214.926L273.66,214.926C273.66,216.067 273.64,217.58 273.601,219.466C273.561,221.353 273.542,222.827 273.542,223.889L273.542,286.685C275.389,286.999 277.571,287.156 280.087,287.156C282.484,287.156 284.607,286.999 286.455,286.685L286.455,214.926C287.044,214.926 288.233,214.956 290.022,215.015C291.81,215.074 292.96,215.103 293.471,215.103L301.313,215.103ZM405.325,256.849C405.325,259.876 405.531,262.608 405.944,265.045C406.357,267.482 407.035,269.772 407.978,271.914C408.922,274.057 410.288,275.727 412.076,276.926C413.865,278.125 415.997,278.725 418.474,278.725C420.95,278.725 423.092,278.125 424.901,276.926C426.709,275.727 428.095,274.067 429.058,271.944C430.021,269.821 430.718,267.522 431.151,265.045C431.583,262.569 431.799,259.837 431.799,256.849C431.799,253.901 431.583,251.189 431.151,248.712C430.718,246.236 430.021,243.926 429.058,241.784C428.095,239.642 426.709,237.971 424.901,236.772C423.092,235.573 420.95,234.974 418.474,234.974C415.997,234.974 413.865,235.573 412.076,236.772C410.288,237.971 408.922,239.642 407.978,241.784C407.035,243.926 406.357,246.226 405.944,248.683C405.531,251.14 405.325,253.862 405.325,256.849ZM93.998,248.3C97.064,248.3 99.718,248.761 101.958,249.685C104.199,250.609 105.899,251.837 107.058,253.37C108.218,254.903 109.063,256.466 109.594,258.058C110.125,259.65 110.39,261.272 110.39,262.922C110.39,264.259 110.272,265.546 110.036,266.785C109.8,268.023 109.329,269.31 108.621,270.647C107.913,271.983 106.999,273.123 105.879,274.067C104.759,275.01 103.245,275.796 101.339,276.425C99.432,277.054 97.221,277.369 94.706,277.369C93.251,277.369 90.883,277.388 87.601,277.427C84.318,277.467 81.812,277.486 80.083,277.486L80.083,248.3L93.998,248.3ZM172.007,251.778L147.596,251.778C147.91,246.354 149.099,242.158 151.163,239.19C153.227,236.222 156.145,234.738 159.919,234.738C164.007,234.738 167.044,236.183 169.029,239.072C171.014,241.961 172.007,245.686 172.007,250.245L172.007,251.778ZM232.385,251.778L207.974,251.778C208.289,246.354 209.478,242.158 211.542,239.19C213.605,236.222 216.524,234.738 220.298,234.738C224.386,234.738 227.422,236.183 229.408,239.072C231.393,241.961 232.385,245.686 232.385,250.245L232.385,251.778ZM92.76,238.394L80.083,238.394L80.083,213.393C82.677,213.472 87.001,213.511 93.055,213.511C102.135,213.511 106.675,217.658 106.675,225.952C106.675,227.525 106.469,228.979 106.056,230.316C105.643,231.652 104.965,232.959 104.022,234.237C103.078,235.514 101.644,236.527 99.717,237.273C97.791,238.02 95.472,238.394 92.76,238.394Z" style="fill:rgb(108,180,191);"/>
    </g>
</svg>
